<svg width="32" height="31" viewBox="0 0 32 31" fill="none" xmlns="http://www.w3.org/2000/svg">
<path opacity="0.5" d="M31.9932 0.586229L24.1638 28.374C24.124 28.5001 23.9647 28.5379 23.8718 28.4496L18.6301 23.4673L22.5581 9.54187C22.5979 9.41574 22.4785 9.30222 22.3458 9.34006L7.69549 13.0737L2.48031 8.11654C2.38742 8.02824 2.42723 7.87688 2.55993 7.83904L31.7809 0.384412C31.9136 0.359184 32.033 0.472707 31.9932 0.586229Z" fill="#00B37E"/>
<path opacity="0.5" d="M18.6289 23.4678L16.6118 30.6576C16.572 30.7837 16.4128 30.8215 16.3199 30.7332L0.0506254 15.2816C-0.0422659 15.1933 -0.00245554 15.0419 0.130246 15.0041L7.69425 13.0742L18.6289 23.4678Z" fill="#00B37E"/>
<path d="M22.5579 9.54124L18.6299 23.4666L7.69531 13.073L22.3456 9.33942C22.4783 9.30158 22.5977 9.41511 22.5579 9.54124Z" fill="#00B37E"/>
</svg>
